<svg xmlns="http://www.w3.org/2000/svg" width="259" height="262" fill="none"><path fill="#F5F5F5" d="M82.974 262 .92.695h236.628L175.247 262H82.974z"/><path fill="#E0E0E0" d="M82.172 262s45.614-27.731 92.273 0H82.172z"/><path fill="#fff" d="M90.623 246.026c0-.483-5.503-17.877-5.503-17.877l-4.772 1.982 2.582-15.856 11.527 10.786-4.553 1.656 6.142 18.119-5.423 1.19zm90.631-103.923c.236-.416 3.931-18.282 3.931-18.282l-5.132-.601 10-12.571 4.783 15.042-4.778-.781-3.492 18.804-5.312-1.611zM43.114 96.932c-.062-.471-7.816-16.99-7.816-16.99l-4.491 2.6.46-16.059 12.852 9.164-4.29 2.246 8.501 17.13-5.216 1.91z"/><path fill="#E0E0E0" d="M226.011 188.594c16.734-5.818 25.583-24.098 19.765-40.832-5.817-16.733-24.098-25.582-40.831-19.765-16.733 5.817-25.583 24.098-19.765 40.832 5.817 16.733 24.098 25.582 40.831 19.765z"/><path fill="#EBEBEB" d="M235.44 178.187c12.527-12.527 12.527-32.837 0-45.364-12.527-12.527-32.837-12.527-45.364 0-12.526 12.527-12.526 32.837 0 45.364 12.527 12.527 32.837 12.527 45.364 0z"/><path fill="#F5F5F5" d="M220.572 177.689c12.702-4.568 19.388-18.312 14.933-30.699-4.454-12.387-18.363-18.726-31.065-14.158-12.702 4.568-19.387 18.313-14.933 30.7 4.455 12.387 18.363 18.725 31.065 14.157z"/><path fill="#FAFAFA" d="M220.545 177.56a24.43 24.43 0 0 1-31.01-14.037c.073.219.141.438.219.663a24.44 24.44 0 0 0 31.381 15.043 24.45 24.45 0 0 0 13.907-12.742 24.425 24.425 0 0 0 .691-18.848 19.156 19.156 0 0 0-.247-.646 24.436 24.436 0 0 1-14.941 30.567z"/><path fill="#E0E0E0" d="M204.476 132.906a24.428 24.428 0 0 1 31.01 14.07c-.073-.219-.14-.443-.225-.662a24.43 24.43 0 1 0-45.979 16.541c.079.219.169.432.253.651a24.427 24.427 0 0 1 14.941-30.6z"/><path fill="#FAFAFA" d="M211.873 138.391c.078.225-.831.764-2.039 1.196-1.207.433-2.245.607-2.341.377-.095-.231.831-.764 2.044-1.202 1.213-.438 2.235-.601 2.336-.371zm3.013 14.807c.085.224-1.415.977-3.34 1.684-1.926.708-3.56 1.073-3.639.842-.078-.23 1.41-.971 3.341-1.684 1.932-.713 3.554-1.073 3.638-.842zm4.004 10.696c.078.23-1.415.976-3.369 1.684-1.954.707-3.554 1.072-3.639.842-.084-.23 1.415-.971 3.341-1.684 1.926-.713 3.582-1.073 3.667-.842z"/><path fill="#E0E0E0" d="M45.692 227.032c12.494 0 22.622-10.128 22.622-22.622s-10.128-22.622-22.622-22.622c-12.493 0-22.622 10.128-22.622 22.622s10.129 22.622 22.622 22.622z"/><path fill="#EBEBEB" d="M50.452 223.917c12.265-2.38 20.279-14.252 17.9-26.517-2.38-12.265-14.252-20.278-26.517-17.899-12.265 2.38-20.279 14.252-17.9 26.517 2.38 12.265 14.252 20.278 26.517 17.899z"/><path fill="#F5F5F5" d="M60.46 211.138c5.226-7.67 3.085-18.233-4.782-23.594-7.867-5.36-18.481-3.488-23.707 4.182-5.227 7.67-3.086 18.233 4.782 23.593 7.867 5.361 18.481 3.489 23.707-4.181z"/><path fill="#EBEBEB" fill-rule="evenodd" d="m50.373 190.797 5.218 2.083-8.362 20.956-5.218-2.083 8.362-20.956zM43.363 188l5.255 2.097-6.272 15.718-5.255-2.097L43.363 188z" clip-rule="evenodd"/><path fill="#FAFAFA" d="M36.782 215.28a17.228 17.228 0 0 1-4.8-23.526l-.287.399a17.22 17.22 0 0 0-2.69 12.908 17.22 17.22 0 0 0 7.224 11.03 17.218 17.218 0 0 0 12.908 2.691 17.239 17.239 0 0 0 11.03-7.225c.096-.135.18-.275.27-.415a17.226 17.226 0 0 1-23.655 4.138z"/><path fill="#E0E0E0" d="M55.635 187.616a17.227 17.227 0 0 1 4.801 23.526c.096-.129.19-.258.286-.399a17.227 17.227 0 1 0-28.472-19.404c-.096.14-.18.275-.27.415a17.226 17.226 0 0 1 23.655-4.138zM156.787 40.364c3.993-8.843.061-19.248-8.782-23.241-8.844-3.993-19.249-.061-23.242 8.782-3.993 8.843-.061 19.249 8.782 23.242 8.843 3.993 19.249.06 23.242-8.783z"/><path fill="#EBEBEB" d="M154.227 42.208c6.185-7.476 5.138-18.55-2.338-24.735-7.476-6.185-18.55-5.138-24.735 2.338-6.185 7.476-5.138 18.55 2.338 24.735 7.476 6.185 18.55 5.138 24.735-2.338z"/><path fill="#F5F5F5" d="M153.09 35.83c2.706-6.683-.656-14.35-7.508-17.124-6.853-2.774-14.601.395-17.306 7.078-2.706 6.682.656 14.349 7.508 17.123 6.853 2.774 14.601-.395 17.306-7.078z"/><path fill="#FAFAFA" d="M135.804 42.856a13.375 13.375 0 0 1-7.513-17.068c-.056.117-.106.235-.157.353a13.384 13.384 0 0 0 17.606 17.145 13.389 13.389 0 0 0 7.206-7.105c.044-.118.089-.236.129-.36a13.375 13.375 0 0 1-17.271 7.035z"/><path fill="#E0E0E0" d="M145.562 18.758a13.367 13.367 0 0 1 7.513 17.063c.056-.112.106-.23.157-.348a13.384 13.384 0 0 0-7.487-17.176 13.387 13.387 0 0 0-17.325 7.137c-.045.118-.09.236-.129.354a13.373 13.373 0 0 1 17.271-7.03z"/><path fill="#EBEBEB" fill-rule="evenodd" d="m139.289 21 3.951 1.577-4.716 11.82-3.952-1.577L139.289 21zm5.27 2.103 3.924 1.566-6.289 15.759-3.924-1.566 6.289-15.759z" clip-rule="evenodd"/><path fill="#A3F0FE" d="M220.514 35.765s-13.71-5.455-44.16 25.005c0 0-31.7 27.255-14.755 38.705 14.42 9.745 33.45-4.21 43.5-13.345a100.946 100.946 0 0 0 15.185-17.97c6.94-10.73 11.07-24.905.23-32.395z"/><path fill="#C7F8FF" d="M220.514 35.765s-13.71-5.455-44.16 25.005c0 0-31.7 27.255-14.755 38.705 14.42 9.745 33.45-4.21 43.5-13.345a100.946 100.946 0 0 0 15.185-17.97c6.94-10.73 11.07-24.905.23-32.395z" opacity=".4"/><path fill="#C7F8FF" d="M219.475 35.375s-17-9.41-47.5 21.05c0 0-29.45 31.395-11.5 41.23 12.295 6.74 30.21-6.735 40.26-15.87 5.28-4.785 12.38-12.285 16.26-18.285 6.955-10.735 10.795-22.83 2.48-28.125z"/><path fill="#1DCEF2" d="M198.926 75.946c13.307-13.307 19.886-28.303 14.694-33.496-5.192-5.192-20.189 1.387-33.496 14.694-13.307 13.307-19.886 28.304-14.694 33.496 5.192 5.192 20.189-1.387 33.496-14.694z" opacity=".2"/><path fill="#FAFAFA" d="M217.514 34.67c0 .08-1.325-.19-3.72-.3-3.38-.13-6.761.238-10.035 1.09a43.471 43.471 0 0 0-6.605 2.275 52.415 52.415 0 0 0-7.07 3.79c-4.795 3-9.585 7.05-14.39 11.5-9.675 8.83-16.295 19.035-19.175 27.08-1.42 4.03-1.71 7.56-1.315 9.91l.125.83.18.72c.055.225.11.43.155.62s.125.345.175.5c.13.297.227.607.29.925a4.64 4.64 0 0 1-.435-.87c-.065-.145-.145-.305-.215-.5s-.12-.395-.19-.615c-.07-.22-.15-.465-.22-.725-.07-.26-.11-.545-.165-.845-.5-2.385-.285-6 1.095-10.135 2.785-8.21 9.405-18.56 19.165-27.475 4.82-4.47 9.665-8.5 14.54-11.54a51.217 51.217 0 0 1 7.195-3.78 42.348 42.348 0 0 1 6.73-2.215 32.79 32.79 0 0 1 10.185-.86c.605.035 1.135.11 1.6.175.39.045.777.11 1.16.195.321.051.636.135.94.25z"/><path fill="#000" d="M164.745 89.795s-9.045-11 13.665-34.275 35.21-13.07 35.21-13.07-10.36-8.405-34.175 15.285c-20.735 20.63-14.7 32.06-14.7 32.06z" opacity=".4"/><path fill="#A3F0FE" d="M176.299 102.5a.732.732 0 0 1-.125-.13l-.32-.37c-.265-.33-.63-.79-1-1.305-.508-.6-.952-1.252-1.325-1.945a10.047 10.047 0 0 1 1.53 1.785c.755 1.015 1.345 1.91 1.24 1.965zm-7.37 0a.522.522 0 0 1-.105-.105l-.265-.305c-.215-.26-.5-.63-.825-1.04a7.394 7.394 0 0 1-1.05-1.575c.485.408.907.885 1.255 1.415.63.825 1.1 1.555.99 1.61zm13.425-1.57a12.863 12.863 0 0 1-1.645-2 12.87 12.87 0 0 1-1.43-2.15c.61.612 1.16 1.282 1.64 2a13.02 13.02 0 0 1 1.435 2.15zm5.586-2.465a14.138 14.138 0 0 1-1.75-2.14 14.765 14.765 0 0 1-1.545-2.295c.65.656 1.236 1.373 1.75 2.14.583.717 1.1 1.485 1.545 2.295zm5.775-3.655a14.668 14.668 0 0 1-1.755-2.14 14.48 14.48 0 0 1-1.54-2.3c.648.66 1.233 1.378 1.75 2.145a14.96 14.96 0 0 1 1.545 2.295zm5.185-3.875a14.405 14.405 0 0 1-1.755-2.14 14.67 14.67 0 0 1-1.54-2.295 14.812 14.812 0 0 1 1.75 2.14 14.956 14.956 0 0 1 1.545 2.295zm5.184-3.875a14.343 14.343 0 0 1-1.755-2.14 14.6 14.6 0 0 1-1.54-2.295 14.946 14.946 0 0 1 1.75 2.14c.583.717 1.1 1.485 1.545 2.295zm4.52-4.77a14.46 14.46 0 0 1-1.75-2.14 14.391 14.391 0 0 1-1.54-2.295 14.807 14.807 0 0 1 1.75 2.14 15.256 15.256 0 0 1 1.54 2.295zm4.426-4.89a15.294 15.294 0 0 1-1.75-2.14 14.261 14.261 0 0 1-1.54-2.3c.648.66 1.234 1.378 1.75 2.145a14.315 14.315 0 0 1 1.54 2.295zm4.324-5.025a14.935 14.935 0 0 1-1.75-2.14 14.665 14.665 0 0 1-1.54-2.295 14.812 14.812 0 0 1 1.75 2.14 14.536 14.536 0 0 1 1.54 2.295zm3.771-5.34a14.432 14.432 0 0 1-1.77-2.14 14.594 14.594 0 0 1-1.5-2.295 14.812 14.812 0 0 1 1.75 2.14 15.22 15.22 0 0 1 1.52 2.295zm3.295-6.17a14.592 14.592 0 0 1-1.755-2.145 14.32 14.32 0 0 1-1.54-2.295 15.224 15.224 0 0 1 1.75 2.14 14.89 14.89 0 0 1 1.545 2.3zm1.88-6.655a12.126 12.126 0 0 1-1.575-1.9 11.552 11.552 0 0 1-1.37-2.06c.587.58 1.113 1.218 1.57 1.905a11.5 11.5 0 0 1 1.375 2.055zm.839-6.595a11.79 11.79 0 0 1-1.575-1.9 12.362 12.362 0 0 1-1.365-2.055 11.287 11.287 0 0 1 1.575 1.9 11.86 11.86 0 0 1 1.365 2.055zM23.854 117.95s6.765-5.45 29.23 6.4c0 0 22.6 9.84 15.045 19.24-6.425 8-19.575 3.45-26.825.05a59.595 59.595 0 0 1-11.685-7.5c-5.765-4.815-10.585-12.08-5.765-18.19z"/><path fill="#C7F8FF" d="M23.854 117.95s6.765-5.45 29.23 6.4c0 0 22.6 9.84 15.045 19.24-6.425 8-19.575 3.45-26.825.05a59.595 59.595 0 0 1-11.685-7.5c-5.765-4.815-10.585-12.08-5.765-18.19z" opacity=".4"/><path fill="#C7F8FF" d="M24.354 117.55s7.95-8.265 30.41 3.595c0 0 22.055 12.565 13.665 21.225-5.755 5.935-18.195 1.465-25.445-1.935-3.805-1.785-9.115-4.775-12.34-7.5-5.79-4.81-10.045-10.935-6.29-15.385z"/><path fill="#A3F0FE" d="M64.43 139.288c2.023-3.829-4.291-11.133-14.103-16.315-9.81-5.182-19.403-6.278-21.425-2.45-2.023 3.829 4.292 11.134 14.103 16.315 9.811 5.182 19.404 6.278 21.426 2.45z" opacity=".2"/><path fill="#FAFAFA" d="M25.355 116.81s.15-.135.5-.325c.165-.095.366-.21.616-.325.25-.115.535-.26.87-.39a18.863 18.863 0 0 1 5.9-1.345 25.39 25.39 0 0 1 4.2.055 30.81 30.81 0 0 1 4.734.87 57.613 57.613 0 0 1 10.18 3.97c7.07 3.335 12.61 8.04 15.6 12.22 1.5 2.1 2.236 4.135 2.35 5.58 0 .18.035.345.05.5v.445a3.45 3.45 0 0 1-.055.7 1.562 1.562 0 0 1-.124.56c-.08 0 .064-.795-.166-2.175a12.5 12.5 0 0 0-2.5-5.295c-3.03-4-8.5-8.56-15.5-11.84a60.346 60.346 0 0 0-10.08-4 31.912 31.912 0 0 0-4.575-.89 26.424 26.424 0 0 0-4.094-.15 21.088 21.088 0 0 0-5.83 1.075c-1.35.45-2.05.825-2.076.76z"/><path fill="#000" d="M64.67 138.685s3.184-7.785-13.666-16.935c-16.85-9.15-22.11-1.25-22.11-1.25s4.37-6.535 21.91 2.665c15.275 8.03 13.865 15.52 13.865 15.52z" opacity=".4"/><path fill="#A3F0FE" d="M60.355 147.85c-.1 0 .055-.635.315-1.35.12-.453.325-.879.605-1.255a4.05 4.05 0 0 1-.36 1.345 5.535 5.535 0 0 1-.56 1.26zm4.165-1.28c-.1 0 0-.525.224-1.095.225-.57.445-1.025.5-1a2.55 2.55 0 0 1-.27 1.09 3.572 3.572 0 0 1-.455 1.005zM56.684 148a4.635 4.635 0 0 1 .385-1.5c.13-.497.343-.969.63-1.395a4.676 4.676 0 0 1-.385 1.5 4.5 4.5 0 0 1-.63 1.395zm-3.574-.395a5.127 5.127 0 0 1 .42-1.58 5.075 5.075 0 0 1 .664-1.5 10.22 10.22 0 0 1-1.085 3.07v.01zm-3.891-1.055a5.13 5.13 0 0 1 .42-1.58 5.228 5.228 0 0 1 .665-1.5 5.256 5.256 0 0 1-.42 1.58 5.137 5.137 0 0 1-.665 1.5zm-3.594-1.28a5.127 5.127 0 0 1 .42-1.58 5.225 5.225 0 0 1 .665-1.5 5.278 5.278 0 0 1-.42 1.58 5.146 5.146 0 0 1-.665 1.5zM42.03 144a5.127 5.127 0 0 1 .42-1.58 5.225 5.225 0 0 1 .664-1.5A10.317 10.317 0 0 1 42.03 144zm-3.376-1.91a5.205 5.205 0 0 1 .415-1.58 5.317 5.317 0 0 1 .665-1.5 5.198 5.198 0 0 1-.415 1.58 5.292 5.292 0 0 1-.665 1.5zm-3.349-1.985a10.315 10.315 0 0 1 1.085-3.075 5.133 5.133 0 0 1-.42 1.58 5.224 5.224 0 0 1-.665 1.495zm-3.321-2.075c.058-.545.2-1.078.42-1.58a5.225 5.225 0 0 1 .665-1.5 5.262 5.262 0 0 1-.42 1.58 5.135 5.135 0 0 1-.665 1.5zm-3.041-2.355a10.312 10.312 0 0 1 1.085-3.075 5.31 5.31 0 0 1-.42 1.58 5.144 5.144 0 0 1-.665 1.495zm-2.929-2.905a10.315 10.315 0 0 1 1.085-3.075 5.292 5.292 0 0 1-.42 1.58 5.132 5.132 0 0 1-.665 1.495zm-2.219-3.425a4.3 4.3 0 0 1 .36-1.41 4.19 4.19 0 0 1 .61-1.33 4.27 4.27 0 0 1-.36 1.395c-.12.481-.328.937-.61 1.345zm-1.621-3.57a4.3 4.3 0 0 1 .36-1.41c.123-.474.33-.923.61-1.325a4.27 4.27 0 0 1-.36 1.41 4.058 4.058 0 0 1-.61 1.325zm65.551-53.852c10.267-10.267 10.267-26.913 0-37.18s-26.913-10.267-37.18 0-10.267 26.913 0 37.18 26.913 10.267 37.18 0z"/><path fill="#fff" d="M87.725 71.923c10.267-10.267 10.267-26.913 0-37.18s-26.913-10.267-37.18 0-10.267 26.913 0 37.18 26.913 10.267 37.18 0z" opacity=".2"/><path fill="#A3F0FE" d="M74.79 27.66a5 5 0 0 1 .88 1.34c.296.444.517.934.654 1.45a5.001 5.001 0 0 1-.88-1.32 4.849 4.849 0 0 1-.655-1.47zm4.31 1.43c.35.372.638.8.85 1.265a4.5 4.5 0 0 1 .62 1.39 4.67 4.67 0 0 1-.85-1.265 4.445 4.445 0 0 1-.62-1.39zm3.94 1.945c.353.37.641.797.85 1.265.286.424.497.894.624 1.39a4.418 4.418 0 0 1-.85-1.265 4.534 4.534 0 0 1-.625-1.39zM70.225 27.05c.361.39.658.836.88 1.32.296.444.518.934.655 1.45a5.001 5.001 0 0 1-.88-1.32 4.8 4.8 0 0 1-.655-1.45zm-4.245.185c.363.389.658.835.876 1.32.294.445.515.935.654 1.45a4.831 4.831 0 0 1-.885-1.32 4.997 4.997 0 0 1-.644-1.45zm-4.171.925c.36.38.656.816.88 1.29.293.432.513.91.65 1.415a4.86 4.86 0 0 1-.88-1.285 4.76 4.76 0 0 1-.65-1.42zm-3.834 1.29c.364.389.661.835.88 1.32a5 5 0 0 1 .655 1.45 4.907 4.907 0 0 1-.885-1.325 5.001 5.001 0 0 1-.65-1.445zm-3.666 2.095c.365.387.662.834.88 1.32.296.444.518.934.655 1.45a5.104 5.104 0 0 1-.88-1.315 4.915 4.915 0 0 1-.655-1.455zm-3.194 2.575c.361.393.658.84.88 1.325.296.443.518.93.655 1.445a5.002 5.002 0 0 1-.88-1.32 4.854 4.854 0 0 1-.655-1.45zm-2.531 2.71c.36.393.658.84.88 1.325.296.443.517.93.655 1.445a5.001 5.001 0 0 1-.88-1.32 4.849 4.849 0 0 1-.655-1.45zm-2.15 3.455c.375.407.685.87.92 1.37a5.2 5.2 0 0 1 .68 1.5 5.402 5.402 0 0 1-.91-1.37 5.185 5.185 0 0 1-.69-1.5zM44.615 44a5.3 5.3 0 0 1 .91 1.365c.3.463.53.969.68 1.5a5.173 5.173 0 0 1-.91-1.365 5.129 5.129 0 0 1-.68-1.5zm-1.226 4c.37.398.694.838.965 1.31.352.427.623.915.8 1.44a6.341 6.341 0 0 1-1-1.295A4 4 0 0 1 43.389 48zm-.534 4.44a6.41 6.41 0 0 1 1 1.56c.334.515.595 1.074.776 1.66a6.327 6.327 0 0 1-1-1.535 6.721 6.721 0 0 1-.776-1.685zm.5 5.985a7.503 7.503 0 0 1 1.086 1.63c.365.545.656 1.137.864 1.76a7.638 7.638 0 0 1-1.09-1.63 7.423 7.423 0 0 1-.86-1.76z"/><path fill="#A3F0FE" d="M78.048 81.351c13.98-3.922 22.133-18.434 18.212-32.414-3.922-13.98-18.434-22.133-32.414-18.212-13.98 3.922-22.134 18.434-18.212 32.414 3.922 13.98 18.434 22.134 32.414 18.212z"/><path fill="#fff" d="M72.461 75.25c11.022-.943 19.212-10.421 18.292-21.171-.92-10.75-10.6-18.7-21.622-17.757-11.022.943-19.212 10.422-18.292 21.172.92 10.75 10.6 18.7 21.622 17.756z" opacity=".2"/><path fill="#000" d="M69.144 36.4a20 20 0 0 1 21.594 17.675c0-.19 0-.38-.034-.57a20.023 20.023 0 0 0-39.9 3.415c0 .19.04.38.06.565A20 20 0 0 1 69.144 36.4z" opacity=".3"/><path fill="#063646" fill-rule="evenodd" d="m69.521 44.045 5.6-1.045 4.198 22.487-5.6 1.045-4.198-22.486zM62 45.45l5.638-1.053 3.15 16.866-5.64 1.053L62 45.45z" clip-rule="evenodd"/><path fill="#A3F0FE" d="M161.955 213.357c16.998-16.997 16.998-44.556 0-61.553-16.997-16.998-44.556-16.998-61.553 0-16.998 16.997-16.998 44.556 0 61.553 16.997 16.998 44.556 16.998 61.553 0z"/><path fill="#000" d="M161.955 213.357c16.998-16.997 16.998-44.556 0-61.553-16.997-16.998-44.556-16.998-61.553 0-16.998 16.997-16.998 44.556 0 61.553 16.997 16.998 44.556 16.998 61.553 0z" opacity=".4"/><path fill="#A3F0FE" d="M159.305 208.781c16.998-16.997 16.998-44.556 0-61.553-16.997-16.998-44.556-16.998-61.554 0-16.997 16.997-16.997 44.556 0 61.553 16.998 16.998 44.557 16.998 61.554 0z"/><path fill="#fff" d="M131.415 209.764c18.231-1.771 31.61-17.618 29.882-35.395-1.727-17.778-17.906-30.753-36.137-28.981-18.231 1.771-31.61 17.618-29.882 35.396 1.727 17.777 17.907 30.752 36.137 28.98z" opacity=".2"/><path fill="#FAFAFA" d="M131.409 209.625a33.14 33.14 0 0 1-36.085-28.85c0 .315.035.63.065.945a33.157 33.157 0 0 0 66-6.415c-.035-.315-.08-.625-.115-.94a33.142 33.142 0 0 1-29.865 35.26z"/><path fill="#000" d="M125.175 145.5a33.149 33.149 0 0 1 36.09 28.85c-.025-.315-.04-.625-.07-.945a33.158 33.158 0 0 0-36.208-29.792 33.153 33.153 0 0 0-29.792 36.207c.035.32.08.63.12.94a33.144 33.144 0 0 1 29.86-35.26z" opacity=".3"/><path fill="#FAFAFA" d="M167.854 159.275a1.539 1.539 0 0 1-.195-.295l-.5-.905c-.21-.405-.5-.895-.83-1.46-.33-.565-.72-1.235-1.21-1.945a43.686 43.686 0 0 0-9.825-10.67 44.324 44.324 0 0 0-8.575-5.195 43.784 43.784 0 0 0-11-3.35 40.462 40.462 0 0 0-6.195-.58 41.186 41.186 0 0 0-6.5.35 43.302 43.302 0 0 0-19.03 7.325 42.47 42.47 0 0 0-5.215 4.24 43.35 43.35 0 0 0-7.8 10 43.869 43.869 0 0 0-4.31 10.65 44.505 44.505 0 0 0-1.315 9.925 42.567 42.567 0 0 0 .61 8.265 43.496 43.496 0 0 0 1.5 6.09c.245.825.5 1.54.75 2.165s.435 1.145.615 1.565l.385.96c.052.107.088.222.105.34a1.543 1.543 0 0 1-.18-.305l-.455-.93c-.205-.41-.445-.925-.685-1.545-.24-.62-.555-1.33-.82-2.155a40.633 40.633 0 0 1-1.635-6.11 42.276 42.276 0 0 1-.735-8.35 43.5 43.5 0 0 1 5.595-20.93 43.787 43.787 0 0 1 7.9-10.19 43.787 43.787 0 0 1 24.68-11.77 42.082 42.082 0 0 1 6.59-.335c2.113.043 4.219.248 6.3.615a43.343 43.343 0 0 1 19.78 8.82 41.885 41.885 0 0 1 9.73 10.935c.475.725.835 1.41 1.155 2 .32.59.58 1.085.77 1.5l.435.945c.11.215.14.325.11.33z"/><path fill="#A3F0FE" d="M122.309 225.195a26.345 26.345 0 0 1-2.6-4.555 26.724 26.724 0 0 1 2.6 4.555zm-7.165-2.285a12.368 12.368 0 0 1-1.36-2.12 12.21 12.21 0 0 1-1.13-2.25 23.976 23.976 0 0 1 2.5 4.37h-.01zm-6.564-3.145a12.442 12.442 0 0 1-1.355-2.12 12.17 12.17 0 0 1-1.135-2.25c.525.658.98 1.369 1.36 2.12.454.709.832 1.463 1.13 2.25zm21.275 6.355a13.308 13.308 0 0 1-1.41-2.215 12.982 12.982 0 0 1-1.185-2.34 13.225 13.225 0 0 1 1.41 2.21c.473.739.87 1.525 1.185 2.345zm7.04-.39a26.724 26.724 0 0 1-2.6-4.555 26.345 26.345 0 0 1 2.6 4.555zm6.898-1.505a13.358 13.358 0 0 1-1.415-2.21 13.789 13.789 0 0 1-1.185-2.345 13.065 13.065 0 0 1 1.415 2.215c.47.74.867 1.524 1.185 2.34zm6.311-2.31a13.19 13.19 0 0 1-1.415-2.215 13.815 13.815 0 0 1-1.185-2.34 13.023 13.023 0 0 1 1.415 2.21c.469.742.866 1.528 1.185 2.345zm6.031-3.535a13.466 13.466 0 0 1-1.415-2.215 13.716 13.716 0 0 1-1.185-2.345c.544.69 1.018 1.432 1.415 2.215.47.742.867 1.527 1.185 2.345zm5.219-4.33a13.4 13.4 0 0 1-1.415-2.215 13.716 13.716 0 0 1-1.185-2.345c.544.69 1.018 1.432 1.415 2.215.47.742.867 1.527 1.185 2.345zm4.155-4.55a13.658 13.658 0 0 1-1.41-2.215 12.865 12.865 0 0 1-1.185-2.345c.542.69 1.014 1.432 1.41 2.215.475.739.872 1.525 1.185 2.345zm3.771-5.26a26.942 26.942 0 0 1-2.6-4.56 13.575 13.575 0 0 1 1.415 2.215c.471.741.868 1.526 1.185 2.345zm3.074-5.97a13.19 13.19 0 0 1-1.415-2.215 13.572 13.572 0 0 1-1.185-2.345 13.4 13.4 0 0 1 1.415 2.215c.469.742.866 1.527 1.185 2.345zm1.949-6.7a13.19 13.19 0 0 1-1.415-2.215 13.629 13.629 0 0 1-1.185-2.355 13.4 13.4 0 0 1 1.415 2.215c.47.745.866 1.534 1.185 2.355zm.906-7.11a19.524 19.524 0 0 1-1.695-2.705 19.248 19.248 0 0 1-1.465-2.835 39.946 39.946 0 0 1 3.16 5.54zm-.981-10.015a19.84 19.84 0 0 1-1.69-2.705 20.082 20.082 0 0 1-1.47-2.83 19.04 19.04 0 0 1 1.695 2.705 19.95 19.95 0 0 1 1.465 2.83z"/><g fill="#fff" opacity=".2"><path d="m100.435 163.785 35.335-3.465 5.235 5.465.03.035h.05l10.71-1.11 2.875-.31.74-.09h.14a.576.576 0 0 0 .04.13.849.849 0 0 0 1.6-.155.826.826 0 0 0-.225-.775.733.733 0 0 0-.5-.205c-.125 0-.185.035-.185.05s.285 0 .5.3a.618.618 0 0 1 .11.56.59.59 0 0 1-.504.417.582.582 0 0 1-.576-.312.618.618 0 0 1 0-.57c.175-.32.465-.345.45-.395-.015-.05-.065-.035-.19 0a.728.728 0 0 0-.44.3.822.822 0 0 0-.115.655h-.14l-.74.06-2.88.26-10.67 1-5.215-5.5-.04-.045h-.055l-35.37 3.415-13.35 1.305c-.035.1-.065.2-.1.3l13.48-1.32zm55.455-8.315 5.58 5.695.04.04h.06l6.815-.705c0-.05-.045-.1-.065-.155l-6.71.605-5.56-5.725-.05-.05h-.07l-4.445.43-16.45 1.645-5 .53-1.35.16a2.858 2.858 0 0 0-.47.075c.158.014.317.014.475 0l1.36-.105 5-.435 16.46-1.555 4.38-.45zm-35.675 19.696 3.46 1.44h.025l5.825-.535 1.545-.155h.105a.436.436 0 0 0 .47.375.436.436 0 0 0 .393-.478.44.44 0 0 0-.478-.392.434.434 0 0 0-.282.149.436.436 0 0 0-.108.301h-.105l-1.55.105-5.805.45-3.455-1.47h-.055l-24.815 2.37-8.695.85-1.7-.825v.315l1.615.79h.08l8.73-.845 24.8-2.445zm3.18-2.216-3.265-1h-.06l-2.09.215-.33-3.83v-.13h-.13l-9.575 1.06-2.675.315-.295.04a.43.43 0 0 0-.46-.355.432.432 0 0 0-.39.475.432.432 0 1 0 .86-.055l.295-.025 2.685-.245 9.44-.915c.093 1.217.195 2.497.305 3.84v.14h.145l2.205-.22 3.265 1h.06l4.065-.395 18.32-1.825 3.395 1.865h.05l3.44-.375.91-.11h.045a.85.85 0 0 0 1.594-.575.822.822 0 0 0-.214-.355.725.725 0 0 0-.5-.21c-.125 0-.185.035-.185.055 0 .02.285 0 .5.3a.614.614 0 0 1 .115.56.585.585 0 0 1-1.085.105.626.626 0 0 1 0-.57c.175-.32.465-.35.45-.395-.015-.045-.07-.04-.19 0a.715.715 0 0 0-.44.295.816.816 0 0 0-.09.75h-.035l-.915.065-3.42.295-3.34-1.915h-.065l-18.36 1.745-4.035.38zM104.2 205.78a.721.721 0 0 0-.5-.21c-.125 0-.185.035-.185.055 0 .02.285 0 .5.3a.607.607 0 0 1 .11.56.583.583 0 0 1-.84.349.582.582 0 0 1-.24-.244.627.627 0 0 1 0-.57c.175-.32.465-.35.45-.395-.015-.045-.07-.04-.19 0a.72.72 0 0 0-.44.295.83.83 0 0 0-.07.805.856.856 0 0 0 .855.5.858.858 0 0 0 .745-.655v-.03h.13l.645-.045 2.44-.195 8.55-.775h.075l.035-.07 2.46-5.215v-.08c-.075-.79-.155-1.6-.235-2.42-.35-3.525-.68-6.84-.96-9.675V188l-.055-.03-4.09-2.685h-.035l-4 .435-1.075.13h-.145a.796.796 0 0 0-.235-.5.725.725 0 0 0-.5-.21c-.125 0-.185.035-.185.055 0 .02.285 0 .5.3a.62.62 0 0 1-.074.848.58.58 0 0 1-.896-.183.627.627 0 0 1 0-.57c.175-.32.465-.35.45-.395-.015-.045-.07-.04-.19 0a.7.7 0 0 0-.44.295.809.809 0 0 0-.075.8.855.855 0 0 0 .859.501.849.849 0 0 0 .746-.656.713.713 0 0 0 0-.235h.14l1.085-.08 3.97-.34c1.145.77 2.5 1.68 4 2.675.27 2.825.58 6.12.915 9.62.08.805.155 1.6.235 2.38l-2.39 5.115-8.465.88-2.43.275-.64.085h-.125a.808.808 0 0 0-.19-.73zm45.655-12.535a.43.43 0 0 0 .385-.445l1.265-.095 4.68-.405h.055l4.9-4.045 9.905-.95c0-.105.045-.205.07-.31l-10.045 1h-.04l-.035.03-4.865 4.1-4.635.5-1.265.155a.43.43 0 0 0-.855.11.429.429 0 0 0 .48.355zm-22.594 28.1c0-.15 0-.345-.035-.575-.05-.675-.125-1.565-.205-2.645-.19-2.225-.475-5.305-.805-8.7-.105-1.06-.205-2.095-.305-3.075v-.06l-.045-.035-5-4.065c-.095-.81-.175-1.5-.235-2-.045-.34-.08-.565-.1-.665a.354.354 0 0 0 .165 0 .431.431 0 0 0 .374-.306.436.436 0 0 0-.8-.332.432.432 0 0 0 .038.469c.05.064.117.112.193.139 0 .095 0 .325.03.685.04.5.09 1.205.155 2.04v.035l.03.03 4.94 4.125a729.007 729.007 0 0 0 1.175 11.695c.125 1.07.225 1.955.305 2.63l.075.575a.432.432 0 0 0-.26.15h.685a.436.436 0 0 0-.375-.115zm-20.216-64.18a.435.435 0 0 0 .164.305.43.43 0 0 0 .336.085.434.434 0 0 0 .345-.569.442.442 0 0 0-.144-.204.438.438 0 0 0-.652.139.432.432 0 0 0-.049.244z"/><path d="M135.091 195.295c-.235-2.84-.5-5.83-.735-8.865-.035-.42-.07-.835-.1-1.255v-.06l-.05-.04-4.185-3.605-.05-.04h-.065l-25.87 2.53h-.06l-15.71 10.545.075.19 15.755-10.5 25.775-2.5 4.095 3.5c.03.395.065.79.095 1.19.26 3.09.5 6.13.75 9v.15h.15l34.575-3 .08-.225-34.525 2.985z"/><path d="M134.47 179.23c.095.855.235 2.065.405 3.58v.035l.035.025 7.36 5.705.04.03h.045l9.77-.935 16.9-1.67 2.35-.25.03-.175-2.4.21-16.9 1.6-9.71.955-7.35-5.57c-.2-1.5-.36-2.685-.5-3.535-.055-.39-.105-.705-.14-.945a1.399 1.399 0 0 0-.065-.32c-.01.108-.01.217 0 .325.06.205.09.535.13.935zm8.306-11.265h-.04l-.035.025-2.535 1.785-7.975.83-2.285.26-.55.075a.773.773 0 0 0-.23-.455.718.718 0 0 0-.5-.21c-.125 0-.19.035-.185.055.005.02.285 0 .5.3a.597.597 0 0 1 .13.355.744.744 0 0 1 0 .2.613.613 0 0 1-.5.42.588.588 0 0 1-.575-.315.613.613 0 0 1 0-.57c.17-.32.465-.35.45-.395-.015-.045-.07-.04-.195 0a.728.728 0 0 0-.44.295.822.822 0 0 0-.07.805.849.849 0 0 0 1.6-.16.721.721 0 0 0 0-.27l.55-.03 2.29-.185 8-.725h.07l2.54-1.77 4.24-.33 13.11-1.08 3.97-.365 1.03-.105a.423.423 0 0 0 .44.392.422.422 0 0 0 .408-.424.425.425 0 0 0-.848-.033l-1.03.055-4 .265-13.11 1-4.225.305zM121.11 211.55c-.115-1.21-.235-2.38-.345-3.5V208l-.06-.04-2.715-1.69-.04-.03h-.045l-6.235.665-1.765.21-.205.025a.435.435 0 0 0-.163-.269.435.435 0 0 0-.302-.086.436.436 0 0 0-.222.761c.085.073.195.11.307.104a.432.432 0 0 0 .385-.44h.205l1.775-.135 6.2-.55 2.6 1.65c.11 1.1.22 2.25.33 3.43l.95 9.395.23.035c-.245-2.625-.55-5.91-.885-9.485zm4.2 7.28.04-.05v-.06c-.455-4.655-.89-9.035-1.265-12.87v-.055l-.045-.035-3.815-3.115c-.34-3.285-.62-5.97-.815-7.865-.1-.915-.185-1.64-.24-2.16-.03-.225-.05-.405-.07-.55h.09a.438.438 0 0 0 .374-.306.436.436 0 0 0-.8-.332.427.427 0 0 0 .301.623c0 .145 0 .33.035.56.045.5.105 1.25.18 2.17.175 1.905.42 4.61.72 7.92v.045l.035.035 3.79 3.135 1.22 12.755-.42.5-1.635 2 .355.04c.5-.59 1-1.21 1.5-1.84l.465-.545zm39.901-19.23-21.73 2.07-4.765.465h-.105l-.025.1-1.5 5.63v.05c.5 4.855.925 9.13 1.265 12.5l.185-.045c-.315-3.355-.71-7.615-1.165-12.45.5-1.75 1-3.595 1.5-5.5l4.66-.45 21.725-2.155 1.035-.11.12-.21-1.2.105z"/><path d="M137.855 182.13v.07l.06.04 1.54 1.095 4.315 3.055.045.03h.04l11.085-1.13 3.225-.355.735-.095a.435.435 0 0 0 .164.287.435.435 0 0 0 .605-.078.43.43 0 0 0 .086-.319.433.433 0 0 0-.302-.373.452.452 0 0 0-.168-.017.44.44 0 0 0-.39.445l-.74.05-3.235.27-11.04 1-4.265-3.035-1.5-1.05c-.335-3.35-.645-6.46-.915-9.14v-.125h-.125l-7 .735-1.955.225-.265.035a.778.778 0 0 0-.125-.15.716.716 0 0 0-.5-.205c-.125 0-.19.035-.185.05.005.015.285 0 .5.3a.19.19 0 0 1 .025.04l-.17.035h.18a.624.624 0 0 1-.123.79.584.584 0 0 1-.897-.185.613.613 0 0 1 0-.57c.175-.32.465-.345.45-.395-.015-.05-.07-.04-.195 0a.754.754 0 0 0-.44.295.83.83 0 0 0 .279 1.189.852.852 0 0 0 1.251-.539.788.788 0 0 0-.075-.565h.245l1.96-.155 6.895-.62c.31 2.655.6 5.745.925 9.065z"/><path d="m171.165 176.13-4.12-3.395-.05-.04h-.06l-.365.04-17.805 1.765-2.84-1.605h-.07l-3.675.37h-.045l-.025.035-3.69 4.54v.025c.13 1.195.235 2.12.305 2.77.035.295.065.53.085.71.006.08.019.158.04.235.008-.08.008-.16 0-.24 0-.18-.03-.415-.05-.715-.055-.64-.135-1.56-.235-2.745l3.695-4.435 3.6-.335 2.83 1.625h.08l17.85-1.71.3-.03 4.125 3.39.045.035h.065l.885-.09v-.29l-.875.09zm-56.68-36.605.05.035 4.355 3.58c.425 4.245.81 8.05 1.115 11.1v.06l.055.03 4.045 2h.04l2.5-.275.64-.085a1.08 1.08 0 0 0 .22-.04.81.81 0 0 0-.22 0l-.65.045-2.47.205-3.94-2c-.29-3.055-.645-6.865-1.045-11.11V143l-.05-.04-4.36-3.595c-.09-.87-.175-1.73-.26-2.58l-.28.1c.08.845.16 1.7.245 2.57l.01.07z"/><path d="m121.689 142.755-.035.045v.055c.315 3 .58 5.56.775 7.42.1.88.185 1.59.245 2.12.021.255.061.507.12.755.01-.253 0-.508-.03-.76-.04-.535-.095-1.25-.165-2.13-.165-1.85-.395-4.395-.665-7.375l4.055-4.905 2.17-2.65.04-.045v-.06l-.075-.74h-.27l.065.705-2.14 2.6-4.09 4.965z"/><path d="M126.676 142.576a.452.452 0 0 0 .07-.265.435.435 0 0 0-.865.08.419.419 0 0 0 .51.391.417.417 0 0 0 .21-.116l.445.4c.475.425 1.155 1 1.95 1.675l.19 2c.15 1.575.305 2.999.435 4.034.038.561.129 1.117.27 1.661.03-.561.01-1.123-.06-1.68-.07-1.04-.195-2.47-.345-4.045-.075-.73-.15-1.431-.215-2.076v-.059l-.045-.036a88.857 88.857 0 0 0-2.065-1.629l-.485-.335zm5.123 11.234v.05l.03.035 2.265 2.355.045.05h.07l13.235-1.3 6.825-.665h.065l.04-.05 5.175-6.785-.195-.205-5.18 6.785-6.76.655L134.259 156l-2.19-2.265c-.78-7.79-1.445-14.43-1.915-19.14v-.085h-.17v.105c.45 4.72 1.075 11.385 1.815 19.195zm5.556 4.69-3.14.26-10.36.98c-.04-.45-.085-.92-.135-1.395v-.19l-.07-.035-4.045-2.29-.04-.025h-.045l-8.31.865-2.405.275-.64.085a.915.915 0 0 0-.22.045.708.708 0 0 0 .225 0l.645-.04 2.41-.19 8.28-.755 3.93 2.24v.035c.055.525.105 1.05.155 1.545v.15h.145l10.5-1.07 3.13-.35.845-.11a1.1 1.1 0 0 0 .29-.06 1.12 1.12 0 0 0-.295 0l-.85.03zm-37.999-12.805 2.764 2.76.05.045h.065l7.5-.765.425 3.895c.045.36.085.665.115.915 0 0-.035 0-.035.03s0 0 .045.025v.12c.008.129.029.256.065.38a1.653 1.653 0 0 0 0-.385v-.095a.75.75 0 0 1 .4.255.623.623 0 0 1 .115.56.585.585 0 0 1-1.085.105.616.616 0 0 1 0-.57c.175-.32.465-.35.45-.395-.015-.045-.07-.04-.195 0a.687.687 0 0 0-.435.295.816.816 0 0 0-.075.805.854.854 0 0 0 .858.491.841.841 0 0 0 .475-.206.841.841 0 0 0 .258-.86.81.81 0 0 0-.216-.355.715.715 0 0 0-.5-.21.236.236 0 0 0-.075 0c0-.255-.04-.555-.065-.915-.085-1-.2-2.35-.345-4v-.12h-.115l-7.5.7-2.7-2.705-.244.2z"/></g><path fill="#063646" fill-rule="evenodd" d="m114.336 162.444 8.724-1.628 4.873 26.096-8.725 1.629-4.872-26.097zm11.639-2.172 8.663-1.618 6.496 34.794-8.664 1.617-6.495-34.793z" clip-rule="evenodd"/></svg>